<?xml version="1.0" encoding="UTF-8"?>
<svg id="Calque_1" data-name="Calque 1" xmlns="http://www.w3.org/2000/svg" xmlns:xlink="http://www.w3.org/1999/xlink" viewBox="0 0 160 160">
  <defs>
    <style>
      .cls-1 {
        mask: url(#mask-1);
      }

      .cls-2 {
        filter: url(#luminosity-noclip-5);
      }

      .cls-3 {
        mask: url(#mask);
      }

      .cls-4 {
        filter: url(#luminosity-noclip-2);
      }

      .cls-5 {
        mask: url(#mask-2);
      }

      .cls-6 {
        filter: url(#luminosity-noclip-3);
      }

      .cls-7 {
        opacity: .2;
        stroke: #000;
        stroke-miterlimit: 10;
        stroke-width: .25px;
      }

      .cls-7, .cls-8 {
        fill: #0d6efd;
      }

      .cls-9 {
        filter: url(#luminosity-noclip-4);
      }

      .cls-10 {
        mask: url(#mask-4);
      }

      .cls-11 {
        mask: url(#mask-3);
      }

      .cls-12 {
        filter: url(#luminosity-noclip);
      }
    </style>
    <filter id="luminosity-noclip" x="13.3" y="13.3" width="133.4" height="133.4" color-interpolation-filters="sRGB" filterUnits="userSpaceOnUse">
      <feFlood flood-color="#fff" result="bg"/>
      <feBlend in="SourceGraphic" in2="bg"/>
    </filter>
    <mask id="mask" x="13.3" y="13.3" width="133.4" height="133.4" maskUnits="userSpaceOnUse">
      <g class="cls-12">
        <g>
          <rect x="76" y="50" width="8" height="60" transform="translate(-33.14 80) rotate(-45)"/>
          <rect x="20" y="76" width="120" height="8" transform="translate(-33.14 80) rotate(-45)"/>
        </g>
      </g>
    </mask>
    <filter id="luminosity-noclip-2" x="-33.14" y="-33.14" width="226.27" height="179.71" color-interpolation-filters="sRGB" filterUnits="userSpaceOnUse">
      <feFlood flood-color="#fff" result="bg"/>
      <feBlend in="SourceGraphic" in2="bg"/>
    </filter>
    <mask id="mask-1" x="-33.14" y="-33.14" width="226.27" height="179.71" maskUnits="userSpaceOnUse">
      <g class="cls-4">
        <g>
          <g>
            <rect x="76" y="50" width="8" height="60" transform="translate(-33.14 80) rotate(-45)"/>
            <rect x="20" y="76" width="120" height="8" transform="translate(-33.14 80) rotate(-45)"/>
          </g>
          <g>
            <rect x="-28.28" y="11.72" width="160" height="80" transform="translate(-21.42 51.72) rotate(-45)"/>
            <rect x="96.57" y="40" width="80" height="80" transform="translate(-16.57 120) rotate(-45)"/>
          </g>
        </g>
      </g>
    </mask>
    <filter id="luminosity-noclip-3" x="13.42" y="-33.14" width="179.71" height="179.71" color-interpolation-filters="sRGB" filterUnits="userSpaceOnUse">
      <feFlood flood-color="#fff" result="bg"/>
      <feBlend in="SourceGraphic" in2="bg"/>
    </filter>
    <mask id="mask-2" x="13.42" y="-33.14" width="179.71" height="179.71" maskUnits="userSpaceOnUse">
      <g class="cls-6">
        <g>
          <g>
            <rect x="76" y="50" width="8" height="60" transform="translate(-33.14 80) rotate(-45)"/>
            <rect x="20" y="76" width="120" height="8" transform="translate(-33.14 80) rotate(-45)"/>
          </g>
          <rect x="68.28" y="-28.28" width="80" height="160" transform="translate(-4.85 91.72) rotate(-45)"/>
        </g>
      </g>
    </mask>
    <filter id="luminosity-noclip-4" x="13.42" y="13.42" width="179.71" height="133.15" color-interpolation-filters="sRGB" filterUnits="userSpaceOnUse">
      <feFlood flood-color="#fff" result="bg"/>
      <feBlend in="SourceGraphic" in2="bg"/>
    </filter>
    <mask id="mask-3" x="13.42" y="13.42" width="179.71" height="133.15" maskUnits="userSpaceOnUse">
      <g class="cls-9">
        <g>
          <g>
            <rect x="76" y="50" width="8" height="60" transform="translate(-33.14 80) rotate(-45)"/>
            <rect x="20" y="76" width="120" height="8" transform="translate(-33.14 80) rotate(-45)"/>
          </g>
          <rect x="96.57" y="40" width="80" height="80" transform="translate(-16.57 120) rotate(-45)"/>
        </g>
      </g>
    </mask>
    <filter id="luminosity-noclip-5" x="13.42" y="13.42" width="133.15" height="133.15" color-interpolation-filters="sRGB" filterUnits="userSpaceOnUse">
      <feFlood flood-color="#fff" result="bg"/>
      <feBlend in="SourceGraphic" in2="bg"/>
    </filter>
    <mask id="mask-4" x="13.42" y="13.42" width="133.15" height="133.15" maskUnits="userSpaceOnUse">
      <g class="cls-2">
        <g>
          <rect x="76" y="50" width="8" height="60" transform="translate(-33.14 80) rotate(-45)"/>
          <rect x="20" y="76" width="120" height="8" transform="translate(-33.14 80) rotate(-45)"/>
        </g>
      </g>
    </mask>
  </defs>
  <g class="cls-3">
    <path id="_0" data-name="0" class="cls-7" d="M80,24.85l-55.15,55.15c-15.23,15.23-15.23,39.92,0,55.15s39.92,15.23,55.15,0l55.15-55.15c15.23-15.23,15.23-39.92,0-55.15-15.23-15.23-39.92-15.23-55.15,0Z"/>
  </g>
  <g class="cls-1">
    <path id="_1_4" data-name="1/4" class="cls-8" d="M80,24.85l-55.15,55.15c-15.23,15.23-15.23,39.92,0,55.15s39.92,15.23,55.15,0l55.15-55.15c15.23-15.23,15.23-39.92,0-55.15-15.23-15.23-39.92-15.23-55.15,0Z"/>
  </g>
  <g class="cls-5">
    <path id="_2_4" data-name="2/4" class="cls-8" d="M80,24.85l-55.15,55.15c-15.23,15.23-15.23,39.92,0,55.15s39.92,15.23,55.15,0l55.15-55.15c15.23-15.23,15.23-39.92,0-55.15-15.23-15.23-39.92-15.23-55.15,0Z"/>
  </g>
  <g class="cls-11">
    <path id="_3_4" data-name="3/4" class="cls-8" d="M80,24.85l-55.15,55.15c-15.23,15.23-15.23,39.92,0,55.15s39.92,15.23,55.15,0l55.15-55.15c15.23-15.23,15.23-39.92,0-55.15-15.23-15.23-39.92-15.23-55.15,0Z"/>
  </g>
  <g class="cls-10">
    <path id="_1" data-name="1" class="cls-8" d="M80,24.85l-55.15,55.15c-15.23,15.23-15.23,39.92,0,55.15s39.92,15.23,55.15,0l55.15-55.15c15.23-15.23,15.23-39.92,0-55.15-15.23-15.23-39.92-15.23-55.15,0Z"/>
  </g>
</svg>